<mxfile host="app.diagrams.net" modified="2023-07-18T11:20:30.976Z" agent="Mozilla/5.0 (Windows NT 10.0; Win64; x64) AppleWebKit/537.36 (KHTML, like Gecko) Chrome/114.0.0.0 Safari/537.36" version="21.6.2" etag="CWQYXLmGZzj035LoPEbB" type="github">
  <diagram name="Sida-1" id="w8fblDQWMLpdq_WswgFl">
    <mxGraphModel>
      <root>
        <mxCell id="0" />
        <mxCell id="1" parent="0" />
      </root>
    </mxGraphModel>
  </diagram>
</mxfile>
